<?xml version="1.0" encoding="iso-8859-1"?>
<svg xmlns="http://www.w3.org/2000/svg" width="72.47" height="82.2" viewBox="0 0 50.436 53.87">
              <path class="logo" id="Path_33" data-name="Path 33" d="M5252.01,6827.287l.336-.6,1.561.932a3.221,3.221,0,0,0,.493.264.512.512,0,0,0,.388-.013.746.746,0,0,0,.33-.334.714.714,0,0,0,.112-.446.479.479,0,0,0-.161-.306,3.567,3.567,0,0,0-.475-.318l-1.593-.953.335-.6,1.515.9a4.661,4.661,0,0,1,.706.487.975.975,0,0,1,.261.4,1.12,1.12,0,0,1,.041.49,1.859,1.859,0,0,1-.234.628,1.9,1.9,0,0,1-.458.591,1,1,0,0,1-.441.2.876.876,0,0,1-.415-.023,4,4,0,0,1-.762-.377l-1.538-.918Zm24.473,4.663h.092a2.22,2.22,0,0,0,.318-.054v.054c0,.543-.272,1.072-.794,1.072-.2,0-.435-.12-.435-.3v-.119a.168.168,0,0,1,.141-.159h.025c.189,0,.277.266.308.266a.542.542,0,0,0,.285-.171.59.59,0,0,0,.111-.347.727.727,0,0,0-.051-.237Zm-.345-.49a1.637,1.637,0,0,0,.368-.032c.114-.027.209-.079.3-.1l.041.238c-.068.006-.188.067-.271.067h-.1l-.205-.029-.128-.144Zm-.486-.584.319.032.18,0a2.793,2.793,0,0,0,.5-.12c0,.083.05.157.05.213s-.321.132-.422.132h-.051l-.449-.062-.138-.176-.017-.025.029.011Zm.9-.688.028.252c0,.057-.416.146-.5.146H5276a1.923,1.923,0,0,1-.36-.051,2.772,2.772,0,0,0-.318-.094l-.118-.213a2.607,2.607,0,0,0,1.347-.041Zm-1.619-.537a2.812,2.812,0,0,0,1.593.014v.192a2.1,2.1,0,0,1-1.3.031c-.115-.04-.289-.092-.316-.216l-.013-.026.033,0Zm1.605-.562.026-.015-.012.066-.016.188c-.111,0-.245.068-.381.079s-.245.039-.41.039h-.1a2.149,2.149,0,0,1-.7-.135c-.086-.026-.234-.078-.272-.155a2.44,2.44,0,0,1-.126-.293,2.362,2.362,0,0,0,1.177.4h.128a1.557,1.557,0,0,0,.69-.174Zm.715-.811a1.592,1.592,0,0,0,.1-.435l0-.146-.018-.118h.3a7.025,7.025,0,0,1,.932.041c.125.02.313.031.451.037s.307.052.437.052v.039a4.789,4.789,0,0,1-.677,1.581,12.517,12.517,0,0,0-.733,1.522,6.572,6.572,0,0,0-.249.88c-.03.145-.058.344-.1.471s-.083.31-.121.445a1.35,1.35,0,0,1-1.315.916h-.089a1.531,1.531,0,0,1-.842-.308,1.133,1.133,0,0,1-.438-.711v-.225a.812.812,0,0,1,.64-.73h.128a.485.485,0,0,1,.354.219c.061.085.2.237.2.365v.093c-.108-.03-.16-.16-.4-.16a.506.506,0,0,0-.474.545v.012a.713.713,0,0,0,.769.69h.013a1.23,1.23,0,0,0,1.076-1.312v-.2a3.932,3.932,0,0,0-.215-1,3.725,3.725,0,0,1-.145-1.065v-.292a3.447,3.447,0,0,1,.051-.491c.031-.261.031-.215.163-.374a1.384,1.384,0,0,0,.194-.343Zm-2.251-.791a.8.8,0,0,1,.832-.782h.154a1.049,1.049,0,0,1,1.05,1.02v.08a1.223,1.223,0,0,1-1.3,1.1,1.668,1.668,0,0,1-.933-.28c-.128-.091-.582-.461-.616-.595l.559-.18a1.064,1.064,0,0,0,.323.46,1.047,1.047,0,0,0,.552.2h.074c.366,0,.745-.22.745-.57v-.132c0-.24-.241-.385-.5-.385l.031.329h.072c.051,0,.089.076.089.137,0,.189-.234.3-.422.3h-.051a.67.67,0,0,1-.654-.7Zm-.331-.146.037-.015-.013.066v.146a1.829,1.829,0,0,0-.36.091c-.112.03-.221.1-.318.119l-.069-.169a2.778,2.778,0,0,1,.723-.239Zm2.509-.279c.205,0,.43.016.612.015a4.749,4.749,0,0,1,.583.035c.172.034.387.016.565.049s.371.033.544.074v.146h-.039c-.125,0-.344-.036-.476-.053-.155-.018-.331-.029-.484-.04-.326-.023-.661-.039-1.01-.039l-.21,0-.083-.182Zm-3.317-.065a2.466,2.466,0,0,1,2.574-2.133h.344a3.141,3.141,0,0,1,1.722.6,2.441,2.441,0,0,1,.575.6,2.238,2.238,0,0,1,.352.827c-.164,0-.405-.053-.6-.066s-.41-.044-.615-.053c-.418-.014-.845-.026-1.294-.026a1.516,1.516,0,0,0-.985-.371h-.1a1.326,1.326,0,0,0-.629.183.988.988,0,0,0-.381.426,2.559,2.559,0,0,0-.5.105c-.083.026-.411.156-.446.16l-.016-.145,0-.107Zm5.927.026a2.239,2.239,0,0,1,.127-.822c.07-.189.252-.448.487-.448h.117c.142,0,.344.117.344.25v.079c0,.072-.045.087-.078.133-.095-.066-.182-.212-.344-.212h-.116c-.246,0-.46.354-.46.637v.066a.69.69,0,0,0,.137.4c.043.049.232.234.3.234.016,0,.112-.106.218-.106a.167.167,0,0,1,.153.146v.053a.124.124,0,0,1-.128.118.212.212,0,0,1-.116-.039,2.78,2.78,0,0,1-.243.159c0,.1.057.2.052.266l-.031.356c-.011.182.143.385.287.385h.09c.147,0,.31-.171.359-.171.021,0,.05.072.05.1v.106a.344.344,0,0,1-.332.319c-.22,0-.313-.355-.422-.438a2.561,2.561,0,0,1-.325.775,1.418,1.418,0,0,1-.611.482c.017-.062.2-.206.254-.281a2.874,2.874,0,0,0,.217-.3,2.028,2.028,0,0,0,.247-.806v-.3c0-.42-.231-.652-.231-1.1v-.039Zm-7.4-1.021c0-.122.19-.25.3-.25h.166c.244,0,.415.262.484.452a2.239,2.239,0,0,1,.129.818c0,.5-.242.727-.242,1.245a2.056,2.056,0,0,0,.217.939,2.345,2.345,0,0,0,.229.347c.078.112.191.171.27.29-.194-.018-.5-.335-.606-.475a2.525,2.525,0,0,1-.315-.771c-.1.072-.223.438-.41.438h-.063c-.132,0-.3-.2-.3-.347v-.026a.189.189,0,0,1,.063-.157.8.8,0,0,0,.382.171h.066a.334.334,0,0,0,.27-.33,2.388,2.388,0,0,1,.038-.677l-.243-.159a.213.213,0,0,1-.1.039h-.027a.142.142,0,0,1-.126-.144.178.178,0,0,1,.18-.173c.078,0,.175.106.218.106.061,0,.262-.213.3-.269a.747.747,0,0,0,.119-.446c0-.271-.226-.624-.475-.624h-.1c-.15,0-.341.212-.347.212-.025,0-.076-.087-.076-.133V6826Zm2.188-1.205c0-.233.53-.438.751-.494a4.928,4.928,0,0,1,1.093-.142h.307c.547,0,1.806.208,1.806.676v.026c0,.037-.052.173-.077.173,0,0-.337-.168-.38-.189a2.373,2.373,0,0,0-.4-.151,3.61,3.61,0,0,0-.946-.163h-.243c-.2,0-.361.039-.538.053a3.472,3.472,0,0,0-.476.118,3.036,3.036,0,0,0-.8.371.36.36,0,0,1-.091-.211v-.066Zm.475-.754-.026.014.012-.026c.208-.322.976-.426,1.523-.426h.09a3.488,3.488,0,0,1,.875.1c.186.047.568.214.609.375a4.11,4.11,0,0,0-1.279-.237h-.461a5.959,5.959,0,0,0-.715.053c-.093.01-.221.051-.321.065s-.221.071-.308.08Zm.7-.7-.025.018.025-.03c.064-.015.194-.066.279-.094a2.27,2.27,0,0,1,.322-.053h.386a1.747,1.747,0,0,1,.587.133l.042.022-.042-.009-.459-.047-.5.007-.613.053Zm.574-.859c0-.109.136-.158.247-.158h.061c.113,0,.257.044.257.158v.371h-.565v-.371Zm-2.071,2.356a.84.84,0,0,0,.049.24c.013.038.1.181.1.184s-.2.182-.221.209c-.068.083-.13.148-.194.237a1.908,1.908,0,0,0-.3.546c-.017-.019-.1-.254-.13-.312a1.031,1.031,0,0,0-.178-.265.851.851,0,0,0-.612-.255.651.651,0,0,0-.7.621v.066c0,.295.315.431.511.53.049-.093.161-.317.282-.317.1,0,.205.172.205.266v.158a.324.324,0,0,1-.128.212.348.348,0,0,0-.14-.04h-.128a.493.493,0,0,0-.409.436v.12a.474.474,0,0,0,.432.413c0,.105.012.168.015.264,0,.048.051.229-.029.2-.1-.032-.212-.178-.355-.178h-.037c-.188,0-.346.235-.346.437v.079a.678.678,0,0,0,.55.665h.167c.106,0,.173-.075.255-.093a1.746,1.746,0,0,0,.453.616,1.342,1.342,0,0,0,.712.335h.012a.231.231,0,0,0,.217-.225v-.079c0-.243-.366-.5-.484-.678a1.63,1.63,0,0,1-.284-.872v-.211a3.254,3.254,0,0,1,.1-.439c.009.011.187.394.226.454a3.627,3.627,0,0,1,.221.461c.147.3.265.63.415.937s.286.6.463.9c.088.148.173.271.264.416.076.12.223.277.277.387a.963.963,0,0,0-.643.366,1.229,1.229,0,0,0-.291.721v.079a1.361,1.361,0,0,0,.484,1.022,1.8,1.8,0,0,0,1.052.435h.243a1.764,1.764,0,0,0,.858-.266,1.562,1.562,0,0,0,.548-.584,13.44,13.44,0,0,0,.489-1.8c.112-.3.189-.537.325-.817.125-.265.255-.5.383-.755.113-.225.272-.523.4-.733a2.516,2.516,0,0,0,.186-.378c.024-.055.139-.385.163-.4a1.715,1.715,0,0,1-.26,1.041c-.15.231-.521.468-.521.771v.027a.259.259,0,0,0,.244.225h.023a1.491,1.491,0,0,0,.7-.349,1.824,1.824,0,0,0,.439-.6c.083.018.183.1.321.1a.682.682,0,0,0,.653-.7c0-.229-.137-.489-.348-.489h-.038c-.163,0-.259.173-.4.173l.015-.411,0-.051a.475.475,0,0,0,.448-.427v-.066a.5.5,0,0,0-.4-.476h-.153c-.075,0-.106.04-.141.04-.05,0-.128-.2-.128-.292v-.012c0-.137.092-.332.217-.332.108,0,.238.231.282.317.209-.114.511-.221.511-.558a.652.652,0,0,0-.678-.66h-.026a.824.824,0,0,0-.617.261,1.26,1.26,0,0,0-.289.586c-.017-.01-.287-.482-.375-.58-.08-.082-.143-.16-.224-.245a2.818,2.818,0,0,1-.249-.22.7.7,0,0,0,.116-.32v-.158a.66.66,0,0,0-.138-.295c-.041-.044-.207-.187-.221-.208a.58.58,0,0,0-.183-.475.952.952,0,0,0-.175-.147c-.029-.021-.185-.106-.2-.117s-.07-.156-.114-.211a1.026,1.026,0,0,0-.167-.159,1.258,1.258,0,0,0-.433-.2v-.464c0-.322-.31-.477-.638-.477a.536.536,0,0,0-.565.477c-.007.07,0,.189,0,.264,0,.151.037.166-.074.189a1.607,1.607,0,0,0-.361.143.868.868,0,0,0-.279.242.675.675,0,0,0-.09.17c-.025.067-.083.081-.144.118a.683.683,0,0,0-.4.636.729.729,0,0,0-.41.608Zm8.921,23.726a2.562,2.562,0,0,1,1.79.285,2.36,2.36,0,0,1,.906,3.115c-.791,2.006-3.086,2.537-4.876,3.146a18.838,18.838,0,0,0-2.911,1.184,1.474,1.474,0,0,1-2.694,0,18.983,18.983,0,0,0-2.911-1.184c-1.789-.608-4.086-1.14-4.876-3.146a2.356,2.356,0,0,1,.9-3.115,2.559,2.559,0,0,1,1.789-.285,2.575,2.575,0,0,0-1.18,2.353c.5-.931,1.389-2.036,2.521-2.076a.979.979,0,0,1,.676.227,2.6,2.6,0,0,0-.694,2.64c.374-1.065,1.083-2.6,2.382-2.513a.682.682,0,0,1,.562.256c-.685.757-.985,2.9-.164,3.753-.035-1.448.625-3.678,1.477-3.938a.4.4,0,0,1,.536.176.527.527,0,0,1,.042.245,9.871,9.871,0,0,0-.219,2.754,11.454,11.454,0,0,0,.477,2.521,11.9,11.9,0,0,0,.524-2.483,9.952,9.952,0,0,0-.22-2.791.377.377,0,0,1,.043-.245.4.4,0,0,1,.536-.176c.851.261,1.511,2.49,1.475,3.938.823-.851.522-3-.163-3.753a.682.682,0,0,1,.561-.256c1.3-.086,2.009,1.447,2.384,2.513a2.6,2.6,0,0,0-.7-2.64.984.984,0,0,1,.676-.227c1.133.04,2.025,1.146,2.521,2.076a2.573,2.573,0,0,0-1.18-2.353Zm-6.439,9.678h0a9.049,9.049,0,0,1,3.543-2.139,19.052,19.052,0,0,0,4.821-2.008,5.353,5.353,0,0,0,1.068-1.069c2.275.467,3.665-.216,5.31-1.411,1.276-.926,2.624-1.988,4.291-1.988a3.469,3.469,0,0,0-1.09-3.066,3.5,3.5,0,0,0,2.074-1.078,6.986,6.986,0,0,1,2.139-1.7,5.257,5.257,0,0,0-5.612-3.451,12.264,12.264,0,0,0,.876-2.082c.6-1.643.993-3.339,1.632-4.966a7.3,7.3,0,0,1,2.128-2.909c-.3-1.332-2.353-2.465-3.94-2.465a6.826,6.826,0,0,0-1.476-2.248,15.8,15.8,0,0,1-1.58-2.519c-2.061,0-3.237-.807-4.826-.807a2.344,2.344,0,0,0-.98.146c-.15.067-.159.1-.215.075a2.52,2.52,0,0,1-.233-.213c-.21-.19-.416-.372-.622-.536-1.25-.988-2.587-1.861-4.06-2.824-.472-.308-.973-.57-1.445-.877a12.084,12.084,0,0,1-1.8-1.394h0a12.057,12.057,0,0,1-1.8,1.394c-.474.307-.974.569-1.446.877-1.47.963-2.807,1.836-4.058,2.824-.208.164-.41.346-.624.536a2.178,2.178,0,0,1-.231.213c-.058.022-.064-.008-.216-.075a2.335,2.335,0,0,0-.98-.146c-1.588,0-2.766.807-4.827.807a15.457,15.457,0,0,1-1.579,2.519,6.841,6.841,0,0,0-1.476,2.248c-1.587,0-3.639,1.133-3.94,2.465a7.316,7.316,0,0,1,2.13,2.909c.638,1.627,1.026,3.323,1.63,4.966a12.5,12.5,0,0,0,.876,2.082,5.256,5.256,0,0,0-5.612,3.451,6.986,6.986,0,0,1,2.139,1.7,3.511,3.511,0,0,0,2.074,1.078,3.469,3.469,0,0,0-1.09,3.066c1.669,0,3.015,1.063,4.291,1.988,1.646,1.2,3.034,1.878,5.31,1.411a5.333,5.333,0,0,0,1.069,1.069c1.465,1.057,3.172,1.395,4.82,2.008a9.046,9.046,0,0,1,3.543,2.139Zm0-39.662c.031.069.068.138.114.22,1.6,2.763,4.445,3.7,6.9,5.394,3.555,2.346,3.527,4.782,3.392,8.469a5.471,5.471,0,0,0,.108,1.629,1.19,1.19,0,0,0,.241-.678,5.5,5.5,0,0,1,.176-1.095,3.351,3.351,0,0,1,.469-.951c.856-1.316,3.035-1.533,4.252-1.26a15.576,15.576,0,0,0,3.35.66c.45-.009.647-.146.387.031a3.645,3.645,0,0,0-.682,1.02,12.687,12.687,0,0,0-.84,2.17c-.877,2.859-1.658,5.4-3.524,7.775a17.647,17.647,0,0,1-5.5,4.667,8.665,8.665,0,0,1-3.067,1.021l.143-.955c-.952.5-1.041,1.485-2.461,1.558a25.728,25.728,0,0,1-3.449.115h0a25.706,25.706,0,0,1-3.447-.115c-1.421-.072-1.51-1.057-2.463-1.558l.145.955a8.673,8.673,0,0,1-3.07-1.021,17.685,17.685,0,0,1-5.5-4.667c-1.865-2.372-2.646-4.916-3.524-7.775a12.567,12.567,0,0,0-.84-2.17,3.661,3.661,0,0,0-.681-1.02c-.26-.177-.065-.04.386-.031a15.549,15.549,0,0,0,3.349-.66c1.217-.273,3.4-.057,4.252,1.26a3.431,3.431,0,0,1,.47.951,5.5,5.5,0,0,1,.177,1.095,1.172,1.172,0,0,0,.238.678,5.44,5.44,0,0,0,.109-1.629c-.136-3.687-.163-6.123,3.389-8.469,2.455-1.693,5.3-2.631,6.9-5.394a2.105,2.105,0,0,0,.115-.22Zm-9.363,29.342a18.741,18.741,0,0,0-5.62.4,6.847,6.847,0,0,1,4.812-1.186c-1.137-.457-3.124-.325-5.093.025,1.233-1.134,3.351-.957,3.706-1.188-1.882-1.9-6.689.4-6.839,3,2.813.065,5.115,4.192,8.576,3.359a3.394,3.394,0,0,1,.551-3.521,4.612,4.612,0,0,0-3.331.881c.525-.94,1.114-1.524,3.239-1.771Zm-8.749-3.757c1.28-.482,3.708.14,4.368.227-1.161-.287-2.294-.989-3.484-1.271a13.371,13.371,0,0,0-1.848-.247,7.771,7.771,0,0,1,3.8,0,4.532,4.532,0,0,0-3.11-.873,2.459,2.459,0,0,1,1.982-.287,4.323,4.323,0,0,0,.9.177,3.425,3.425,0,0,0-.347-.292c-2.042-1.494-4.9.286-5.417,1.91a16.3,16.3,0,0,1,2.008,1.734,2.431,2.431,0,0,0,1.86.525,13.392,13.392,0,0,1,2.174-.864,6.554,6.554,0,0,0-2.892-.74Zm-.93-15.092a2.378,2.378,0,0,0-1.189,1.016c1.143.568,2.949-.208,4.165-.458a10.1,10.1,0,0,1,1.922-.24,8.132,8.132,0,0,0-1.771-.6,4.917,4.917,0,0,0-3.126.28Zm9.623-5.107c.218-.261.437-.5.641-.791-.369-.468-2.09.088-2.518.229a6.3,6.3,0,0,1-2.466.372c-.429.663-.714,1.2-1.142,1.764a9.381,9.381,0,0,0-1.218,1.631,1.979,1.979,0,0,0-.3.729,9.226,9.226,0,0,1,5.214,2.716,14.552,14.552,0,0,1,.5-4.208,7.156,7.156,0,0,1,1.3-2.441Zm.526.606a12.919,12.919,0,0,1,2.156-1.564c.38-.24.882-.52,1.434-.829,1.806-1.012,4.151-2.359,4.522-3.8-1.825.905-7.683,4.366-8.113,6.2Zm18.258,23.35a18.737,18.737,0,0,1,5.62.4,6.853,6.853,0,0,0-4.813-1.186c1.138-.457,3.125-.325,5.094.025-1.233-1.134-3.351-.957-3.7-1.188,1.881-1.9,6.686.4,6.837,3-2.812.065-5.114,4.192-8.574,3.359a3.4,3.4,0,0,0-.55-3.521,4.613,4.613,0,0,1,3.331.881c-.529-.94-1.115-1.524-3.24-1.771Zm8.747-3.757c-1.278-.482-3.706.14-4.367.227,1.161-.287,2.3-.989,3.485-1.271a13.34,13.34,0,0,1,1.847-.247,7.781,7.781,0,0,0-3.807,0,4.547,4.547,0,0,1,3.112-.873,2.459,2.459,0,0,0-1.982-.287,4.312,4.312,0,0,1-.9.177,3.035,3.035,0,0,1,.346-.292c2.041-1.494,4.9.286,5.415,1.91a16.07,16.07,0,0,0-2.006,1.734,2.436,2.436,0,0,1-1.861.525,13.409,13.409,0,0,0-2.174-.864,6.549,6.549,0,0,1,2.89-.74Zm.931-15.092a2.384,2.384,0,0,1,1.191,1.016c-1.146.568-2.95-.208-4.167-.458a10.105,10.105,0,0,0-1.923-.24,8.148,8.148,0,0,1,1.772-.6,4.915,4.915,0,0,1,3.125.28Zm-9.624-5.107c-.215-.261-.436-.5-.641-.791.37-.468,2.093.088,2.518.229a6.3,6.3,0,0,0,2.467.372c.429.663.715,1.2,1.142,1.764a9.539,9.539,0,0,1,1.219,1.631,1.987,1.987,0,0,1,.3.729,9.235,9.235,0,0,0-5.216,2.716,14.519,14.519,0,0,0-.5-4.208,7.166,7.166,0,0,0-1.3-2.441Zm-.524.606a13,13,0,0,0-2.156-1.564c-.38-.24-.883-.52-1.436-.829-1.806-1.012-4.149-2.359-4.521-3.8,1.825.905,7.682,4.366,8.113,6.2Zm-11.393,17.49.723.889-3.125,2.265,2.4-3.153Zm5.2-1.386,1.455,2.013,1.4,1.923-3.617-1.377-.541,2.41-1.655-1.892-1.536-1.892.135-.479,4.362-.706Zm-10.678-2.419c.543-.126,7.5-1.035,8.051-1.129l-.915,1.407-6.334.838a1.226,1.226,0,0,1-.461.018c-.726-.113-1.234-.919-.34-1.134Zm17.349-1.913c.347.279.511.75-.153.865l-3.68.53.876-1.316,1.938-.214c.395-.062.674-.147,1.02.135Zm-10.827,4.354,2.427-3.627,4.623-.734-2.521,3.58-4.529.781Zm.5-5.365.941,1.124-4.779.6-.6-1.077,4.437-.645Zm.621,9.446,1.544,1.8.683-.2.5-2.247,3.536,1.395.771-.4-3.253-4.5.545-.742,3.584-.446a3.938,3.938,0,0,0,2.252-.992,1.933,1.933,0,0,0,.5-2.105,1.655,1.655,0,0,0-1.8-.809c-.351.063-1.707.3-1.979.326l-.609-.412-5.205.854-1.4-1.64-5.1.689-.437.64.635,1.211-3.467.436c-.241.4-1.183,1.7-1.121,2.387a2.037,2.037,0,0,0,1.175,1.483l5.554-.7.411.658c-.494.639-2.587,3.5-2.947,4.067l.617.432.661-.015,2.586-1.79-.22.705.454.443,1.537-.531Zm21.522,7.155-.746-.193-1.351,1.533,0,0-1.471,1.352-.023-.013-1.953,1.445-1.611.986-1.849,1,.636.444.367-.2.344.682a1.338,1.338,0,0,0,.526.553,2,2,0,0,0,.9.2l-.618,1.122.615.285,1.044-1.9.382.668.924.051-1.732-3.036.744-.458-.029-.019,2-1.48-.012-.008.305-.281.317.369-2.186,1.642.158.383a1.614,1.614,0,0,1,.877-.191.479.479,0,0,1,.361.753.448.448,0,0,0-.565.2.471.471,0,0,0,.367.7.69.69,0,0,0,.572-.187l1.026.264.081-.421-.792-.206a1.592,1.592,0,0,0,.138-.354.7.7,0,0,0-.243-.861,1.241,1.241,0,0,0-.6-.228l1.266-.96,1.15,1.341.914-.137-2.26-2.637.648-.594-.035-.012.307-.352,2.137,2.022.9-.229-2.516-2.379.586-.661Zm-5.529,6.7c-.123.276-.39.743-.787.748-.281,0-.527-.524-.527-.524l-.475-.938,1.045-.563-.03-.02.021-.018.752,1.315Zm-33.833-4.3-3.466-3.727-.233.757,1.478,1.589-.621.621a1.457,1.457,0,0,0-.1-.783.938.938,0,0,0-1.51-.364,1.307,1.307,0,0,0-.022,1.829,1.034,1.034,0,0,0,.655.293l-.486.484.159.937,1.193-1.191a2.9,2.9,0,0,1,.662.1c.49.146.482.362-.177.687a2.6,2.6,0,0,1-.764.213l.115.76a2.173,2.173,0,0,0,1.025-.4c.394-.3.793-1.266.275-1.781a1.023,1.023,0,0,0-.484-.227l.61-.608,1.076,1.157-.005.034.164.136.294.315-.737.939-.123-.1a.236.236,0,0,0-.365.057,2.145,2.145,0,0,0,.05,1.332c.232.271.454-.055.454-.055l.145-.184,1.111.9-.555.886.365.879,1.858-2.956.727.49,0-.041.029.016-1.493,2.569.4.865,1.759-3.02.722.452.005.054.471.186-.5,1.346a1.521,1.521,0,0,0,.5,1.26c.482.469,1.178.6,1.532-.356l.531-1.425.729.288.022.115.48.154-.853,2.862.586.742,1-3.37.829.264-.15-.776-1.861-.594-.015-.129-1.693-.673.166-.285a3.2,3.2,0,0,0-.289-1.448,1.57,1.57,0,0,0-1.538-1.025c-.981.153-.936,1.382-.936,1.382l-.793-.5v.008l-.521-.354a1.47,1.47,0,0,1,.089-.6.539.539,0,0,1,.8-.316.622.622,0,0,1,.239.252l.15-.049a1.056,1.056,0,0,0-.244-.607.659.659,0,0,0-1.19.238,2.833,2.833,0,0,0-.1.914l-.057-.038.006-.049-1.578-1.326Zm-3.2-.4a1.127,1.127,0,0,1-.686-.075c-.314-.122-.69-.423-.558-.7a.737.737,0,0,1,1.174.036.992.992,0,0,1,.07.74Zm3.942,3.524-1.053-.853.77-.979.519.435,0,.081.42.281-.652,1.035Zm3.491.058,0-.1-.779-.489s.252-.687.778-.795a1.179,1.179,0,0,1,1.141.557,2.5,2.5,0,0,1,.395,1.447l-1.538-.615Zm1.22,2.97s-.263.406-.6.132a.313.313,0,0,1-.088-.339l.584-1.567.661.265-.561,1.51Zm8.641.908-.01-.029.982.125s.321.4-.132.543c-.195.057-.381.1-.528.128a3.106,3.106,0,0,0-1.035-.583,1.067,1.067,0,0,0-1.4.858,1.377,1.377,0,0,0,.915,1.47c.634.186,1.47-.462,1.47-.462l.028-.105.013.024c.562,1.112,2.009.552,2.145.5l-.041.8.743.569.176-3.521.642.035.051.08,3.262-.3-.017-.023.669-.084s.4.3,0,.561c-.1.056-.2.111-.285.159l-1.953.162c-.1.01-.177.132-.054.282.214.254.589.688.425,1.006-.082.168-.489.374-.892-.06a3.112,3.112,0,0,1-.541-.927l-.316.17a4.51,4.51,0,0,0,.711,1.193,1.129,1.129,0,0,0,1.316.458.77.77,0,0,0,.323-1.113,1.278,1.278,0,0,0-.283-.354l1.008-.078a2.58,2.58,0,0,0,.324.525c.762.888,1.955.128,2.181-.026l.162.715.867.335-.77-3.436.656-.156.061.055,2.333-.879.256.565-1.442.589a.833.833,0,0,0-.466,1.03,1.355,1.355,0,0,0,.582.712l.935.74.262-.356-.762-.593a.653.653,0,0,1-.3-.489.462.462,0,0,1,.286-.5l1.2-.493.633,1.4.916.142-1.443-3.2.787-.377-.616-.476-.853.412-.3-.269a3.932,3.932,0,0,0-1.085-.793.906.906,0,0,0-.86.1l.477.614a.692.692,0,0,1,.464-.115,1.381,1.381,0,0,1,.656.286l.378.3-.812.392.028.023-1.563.592-.062-.075-1.723.414-2.236.285-2.628.24-.043-.094-1.73-.1-.008-.02-2.429-.3-2.353-.477.23.76,2.43.485Zm.137,1.5a3.678,3.678,0,0,1-.828.318c-.334.078-.936,0-1.035-.264-.107-.3.273-.665.756-.689a2.578,2.578,0,0,1,1.02.17,4.39,4.39,0,0,0,.088.465Zm2.354.052a2.447,2.447,0,0,1-1.294.433c-.668-.032-.653-.528-.653-.528s.772-.116.961-.458a1.025,1.025,0,0,0-.1-.848l.637.077.009.024.3.017.061.007v0l.147.007-.063,1.273Zm7.209-.432a2.475,2.475,0,0,1-1.112.689c-.654.135-.757-.35-.757-.35s.723-.306.826-.686-.3-.8-.3-.8l1.006-.129-.033-.047.067-.019.3,1.338Zm3.462-2.6-.007,0h0l0,0Zm-29.2-33.913-2.586-2.167.411-.525,2.585.35-1.726-1.446.392-.5,2.584,2.167-.423.543-2.531-.335,1.686,1.413-.392.5Zm2.107-2.653-2.395-2.393.467-.5,2.394,2.394-.466.5Zm1.56-1.562-3.049-1.848.557-.485,2.228,1.393-.959-2.494.546-.476,1.228,3.433-.55.478Zm1.679-1.529-1.909-2.821,2.02-1.464.322.477-1.471,1.066.424.625,1.366-.99.324.474-1.371.992.521.768,1.521-1.1.323.475-2.072,1.5Zm2.567-1.835-1.51-3.068,1.259-.666a2.373,2.373,0,0,1,.731-.28.748.748,0,0,1,.491.111.985.985,0,0,1,.366.416.944.944,0,0,1,.084.675,1.073,1.073,0,0,1-.447.592,1.525,1.525,0,0,1,.448.088,3.975,3.975,0,0,1,.587.318l.656.409-.716.375-.761-.438a4.742,4.742,0,0,0-.538-.284.516.516,0,0,0-.242-.033,1.072,1.072,0,0,0-.32.126l-.121.063.63,1.28-.6.316Zm-.272-2.087.441-.233a2.621,2.621,0,0,0,.521-.321.375.375,0,0,0,.1-.219.466.466,0,0,0-.05-.262.4.4,0,0,0-.2-.207.394.394,0,0,0-.286,0c-.051.018-.2.094-.441.22l-.467.247.384.778Zm2.722-.4.588-.306a.789.789,0,0,0,.4.378.689.689,0,0,0,.509-.031.75.75,0,0,0,.407-.314.439.439,0,0,0,.039-.369.315.315,0,0,0-.138-.17.529.529,0,0,0-.276-.049c-.085,0-.268.022-.555.058a1.748,1.748,0,0,1-.824-.036.886.886,0,0,1-.527-.533.924.924,0,0,1-.036-.514.945.945,0,0,1,.268-.478,1.657,1.657,0,0,1,.569-.355,1.37,1.37,0,0,1,.979-.086,1,1,0,0,1,.574.586l-.616.276a.578.578,0,0,0-.305-.285.66.66,0,0,0-.437.048.773.773,0,0,0-.386.286.267.267,0,0,0,.141.4,1.732,1.732,0,0,0,.656-.015,3.091,3.091,0,0,1,.761-.038.928.928,0,0,1,.466.19,1.112,1.112,0,0,1,.357,1.038,1.013,1.013,0,0,1-.286.527,1.863,1.863,0,0,1-.634.385,1.387,1.387,0,0,1-1.008.078,1.292,1.292,0,0,1-.682-.67Zm3.452-.084-.86-3.327.648-.18.861,3.328-.649.179Zm2.008-.5-.479-2.818-.972.18-.1-.576,2.6-.475.1.572-.968.18.479,2.816-.663.121Zm2.933-.423-.1-1.446-1.352-1.9.787-.058.873,1.3.674-1.415.771-.055-1.086,2.083.1,1.441-.667.047Zm3.5-1.814a2.2,2.2,0,0,1,.256-.858,1.577,1.577,0,0,1,.363-.429,1.271,1.271,0,0,1,.46-.253,1.742,1.742,0,0,1,.731-.046,1.541,1.541,0,0,1,1.11.617,2.159,2.159,0,0,1-.3,2.6,1.507,1.507,0,0,1-1.218.318,1.555,1.555,0,0,1-1.117-.612,1.829,1.829,0,0,1-.283-1.337Zm.692.063a1.328,1.328,0,0,0,.15.913.863.863,0,0,0,.625.384.821.821,0,0,0,.69-.216,1.683,1.683,0,0,0,.216-1.766.911.911,0,0,0-1.327-.166,1.32,1.32,0,0,0-.354.851Zm2.857,2.153.691-3.368,2.234.491-.118.568-1.574-.345-.163.8,1.358.3-.118.57-1.359-.3-.292,1.434-.659-.146Zm3.975,1.132,1.352-3.147.615.283-.6,1.4,1.841-.824.824.379-1.67.7.38,2.477-.794-.367-.2-1.861-.726.3-.41.952-.612-.283Zm3.056,1.467,1.612-3.013,2.157,1.237-.273.511-1.569-.9-.359.668,1.461.838-.27.509-1.461-.839-.44.819,1.625.932-.272.51-2.212-1.271Zm2.653,1.634,2.048-2.713,1.115.9a2.494,2.494,0,0,1,.557.568.822.822,0,0,1,.107.506,1.026,1.026,0,0,1-.207.52.889.889,0,0,1-.555.364,1.026,1.026,0,0,1-.708-.169,1.674,1.674,0,0,1,.113.458,3.924,3.924,0,0,1-.034.684l-.076.79-.636-.514.064-.9a5.129,5.129,0,0,0,.021-.624.524.524,0,0,0-.074-.24,1.12,1.12,0,0,0-.245-.248l-.106-.085-.854,1.133-.53-.43Zm1.712-1.137.392.316a2.7,2.7,0,0,0,.5.352.345.345,0,0,0,.236,0,.448.448,0,0,0,.206-.159.44.44,0,0,0,.1-.278.431.431,0,0,0-.119-.268c-.038-.042-.166-.148-.38-.322l-.414-.336-.518.69Zm3,5.524-.508-.546.342-.759-.924-.991-.735.34-.494-.53,3.292-1.427.5.527-1.469,3.386Zm.088-1.869.568-1.229-1.2.554.633.675Zm.1,2.22,2.564-2.15.422.54-2.128,1.785,1.051,1.343-.435.364-1.474-1.882Zm3.216,4.968-.367-.655.509-.652-.664-1.193-.792.146-.355-.638,3.529-.562.354.639-2.214,2.916Zm.521-1.791.839-1.051-1.295.237.456.813Z" transform="translate(-5252.01 -6811.358)" fill="#000" fill-rule="evenodd"></path>
            </svg>